<svg version="1.1" xmlns="http://www.w3.org/2000/svg" viewBox="-292.4273874982741 -413.39328343333284 524.6635675012351 893.1358506099756" fill="none" stroke="black" stroke-width="0.6%" vector-effect="non-scaling-stroke">
    <path d="M -158.8915 -272.91436 L -98.77023 -208.60416 L -122.28212 417.28547 A 200 171.16077 180 0 0 156.1809 441.232 A 200 171.16077 180 0 0 228.79465 280.91903" />
    <path d="M -252.46013 278.03736 L -122.28212 417.28547" />
    <path d="M -158.8915 -272.91436 L -252.46013 278.03736" />
    <path d="M -164.29431 -278.94243 A 125 106.97548 180 0 0 -158.8915 -272.91436" />
    <path d="M -164.29431 -278.94243 L 30.61141 -412.39328" />
    <path d="M 36.29788 -406.55943 A 125 106.97548 180 0 0 30.61141 -412.39328" />
    <path d="M 96.41914 -342.24923 L 36.29788 -406.55943" />
    <path d="M 78.09045 -190.63787 A 125 106.97548 180 0 0 123.47676 -290.81873 C 125.33 -280.75 127.18 -270.69 129.03693 -260.61911 C 130.89 -250.55 132.74 -240.49 134.5974 -230.42024 C 136.45 -220.35 138.3 -210.29 140.15816 -200.22206 C 142.01 -190.16 143.87 -180.09 145.7192 -170.02453 C 147.57 -159.96 149.43 -149.89 151.28048 -139.8276 C 153.13 -129.76 154.99 -119.7 156.84199 -109.63122 C 158.7 -99.57 160.55 -89.5 162.40372 -79.43537 C 164.26 -69.37 166.11 -59.31 167.96565 -49.23999 C 169.82 -39.17 171.67 -29.11 173.52776 -19.04507 C 175.38 -8.98 177.24 1.08 179.09005 11.14945 C 180.94 21.21 182.8 31.28 184.6525 41.34357 C 186.51 51.41 188.36 61.47 190.21511 71.53732 C 192.07 81.6 193.92 91.67 195.77786 101.73074 C 197.63 111.8 199.49 121.86 201.34074 131.92383 C 203.2 141.99 205.05 152.05 206.90375 162.11661 C 208.76 172.18 210.61 182.24 212.46688 192.3091 C 215.19 207.08 217.91 221.85 220.63066 236.61433 C 223.35 251.38 226.07 266.15 228.79465 280.91903" />
    <path d="M 123.47676 -290.81873 A 125 106.97548 180 0 0 96.41914 -342.24923" />
    <path d="M -98.77023 -208.60416 A 125 106.97548 180 0 0 78.09045 -190.63787" />
    <path d="M -291.42739 199.70901 A 200 171.16077 180 0 0 -252.46013 278.03736" />
    <path d="M -164.29431 -278.94243 C -164.83 -278.04 -165.36 -277.14 -165.88831 -276.24228 C -166.42 -275.34 -166.94 -274.44 -167.45813 -273.54064 C -167.98 -272.64 -168.49 -271.74 -169.00431 -270.83716 C -169.52 -269.94 -170.02 -269.03 -170.52737 -268.13152 C -171.06 -267.17 -171.59 -266.21 -172.12224 -265.25157 C -172.65 -264.29 -173.17 -263.33 -173.69214 -262.36843 C -174.21 -261.41 -174.73 -260.44 -175.23767 -259.48173 C -175.75 -258.52 -176.26 -257.56 -176.7594 -256.5911 C -177.29 -255.58 -177.81 -254.57 -178.32847 -253.55866 C -178.85 -252.55 -179.36 -251.53 -179.87267 -250.52112 C -180.38 -249.51 -180.89 -248.49 -181.39264 -247.47808 C -181.9 -246.46 -182.39 -245.45 -182.88898 -244.42915 C -183.38 -243.41 -183.87 -242.4 -184.36113 -241.37637 C -184.85 -240.36 -185.33 -239.34 -185.81086 -238.31696 C -186.29 -237.3 -186.77 -236.27 -187.23875 -235.25056 C -187.71 -234.23 -188.18 -233.2 -188.64536 -232.17679 C -189.11 -231.15 -189.57 -230.12 -190.03243 -229.09265 C -190.49 -228.06 -190.95 -227.03 -191.39927 -226.00043 C -191.85 -224.97 -192.3 -223.93 -192.74643 -222.8998 C -193.19 -221.86 -193.63 -220.83 -194.07442 -219.7904 C -194.51 -218.76 -194.95 -217.72 -195.37687 -216.68845 C -195.81 -215.65 -196.24 -214.62 -196.66137 -213.57718 C -197.09 -212.54 -197.51 -211.5 -197.92841 -210.45628 C -198.35 -209.41 -198.76 -208.37 -199.17847 -207.32542 C -199.59 -206.28 -200 -205.24 -200.40961 -204.19052 C -200.82 -203.14 -201.22 -202.1 -201.62478 -201.04509 C -202.43 -198.94 -203.22 -196.84 -204.00904 -194.72147 C -205.58 -190.5 -207.1 -186.25 -208.59735 -181.95899 C -220.45 -147.9 -230.25 -111.66 -239.65897 -72.19577 C -257.99 5.99 -276.14 97.73 -291.42739 199.70901" />
</svg>