<svg version="1.1" xmlns="http://www.w3.org/2000/svg" viewBox="-327.2429863754212 -506.5881747334982 623.9887786006738 1139.2107683601507" fill="none" stroke="black" stroke-width="0.6%" vector-effect="non-scaling-stroke">
    <path d="M -164.98451 -332.52212 L -103.24409 -262.16574 L -154.63838 543.46095 A 250 219.27789 180 0 0 198.23176 586.11028 A 250 219.27789 180 0 0 292.87258 379.19559" />
    <path d="M -272.03622 409.6801 L -154.63838 543.46095" />
    <path d="M -164.98451 -332.52212 L -272.03622 409.6801" />
    <path d="M -175.59677 -346.48114 A 150 131.56673 180 0 0 -164.98451 -332.52212" />
    <path d="M -175.59677 -346.48114 L 60.07827 -505.58817" />
    <path d="M 72.7469 -493.01743 A 150 131.56673 180 0 0 60.07827 -505.58817" />
    <path d="M 134.48732 -422.66106 L 72.7469 -493.01743" />
    <path d="M 106.74018 -238.57912 A 150 131.56673 180 0 0 163.52556 -362.72283 C 166.19 -347.42 168.86 -332.12 171.52806 -316.81464 C 174.2 -301.51 176.86 -286.21 179.53074 -270.90686 C 182.2 -255.6 184.87 -240.3 187.53357 -224.99943 C 190.2 -209.7 192.87 -194.39 195.53654 -179.09232 C 198.2 -163.79 200.87 -148.49 203.53964 -133.1855 C 206.21 -117.88 208.88 -102.58 211.54285 -87.27893 C 214.21 -71.98 216.88 -56.67 219.54615 -41.37258 C 222.21 -26.07 224.88 -10.77 227.54955 4.53355 C 230.27 20.14 232.99 35.76 235.7147 51.36683 C 238.44 66.98 241.16 82.59 243.87993 98.19993 C 246.6 113.81 249.32 129.42 252.04523 145.03287 C 254.77 160.64 257.49 176.25 260.21059 191.86566 C 262.93 207.48 265.65 223.09 268.37601 238.69832 C 271.1 254.31 273.82 269.92 276.54149 285.53085 C 279.26 301.14 281.99 316.75 284.70701 332.36327 C 287.43 347.97 290.15 363.58 292.87258 379.19559" />
    <path d="M 163.52556 -362.72283 A 150 131.56673 180 0 0 134.48732 -422.66106" />
    <path d="M -103.24409 -262.16574 A 150 131.56673 180 0 0 106.74018 -238.57912" />
    <path d="M -322.75779 236.84555 A 250 219.27789 180 0 0 -272.03622 409.6801" />
    <path d="M -175.59677 -346.48114 C -175.99 -345.97 -176.38 -345.47 -176.77033 -344.96061 C -177.16 -344.45 -177.55 -343.95 -177.92908 -343.44206 C -178.31 -342.94 -178.69 -342.43 -179.07321 -341.92539 C -179.45 -341.42 -179.83 -340.92 -180.20285 -340.4105 C -180.59 -339.89 -180.97 -339.37 -181.34825 -338.85624 C -181.73 -338.34 -182.1 -337.82 -182.47872 -337.30365 C -182.85 -336.79 -183.22 -336.27 -183.59443 -335.75262 C -183.96 -335.24 -184.33 -334.72 -184.69554 -334.20305 C -185.07 -333.67 -185.45 -333.14 -185.81597 -332.60643 C -186.19 -332.07 -186.56 -331.54 -186.92123 -331.01115 C -187.29 -330.48 -187.65 -329.95 -188.01148 -329.41709 C -188.37 -328.89 -188.73 -328.35 -189.0869 -327.82416 C -189.45 -327.28 -189.82 -326.73 -190.18082 -326.18212 C -190.54 -325.63 -190.9 -325.09 -191.25931 -324.54106 C -191.62 -323.99 -191.97 -323.45 -192.32257 -322.90085 C -192.67 -322.35 -193.02 -321.81 -193.37076 -321.26139 C -193.73 -320.7 -194.08 -320.13 -194.43665 -319.57051 C -194.79 -319.01 -195.14 -318.44 -195.48687 -317.8802 C -195.83 -317.32 -196.18 -316.75 -196.52161 -316.19034 C -196.86 -315.63 -197.2 -315.06 -197.54106 -314.50082 C -197.89 -313.92 -198.23 -313.34 -198.57742 -312.75724 C -198.92 -312.18 -199.26 -311.59 -199.59787 -311.01378 C -199.94 -310.43 -200.27 -309.85 -200.60262 -309.27032 C -200.93 -308.69 -201.26 -308.11 -201.59185 -307.52674 C -201.93 -306.93 -202.26 -306.33 -202.59723 -305.72608 C -202.93 -305.13 -203.26 -304.53 -203.58647 -303.92504 C -204.24 -302.72 -204.88 -301.52 -205.51736 -300.32132 C -206.83 -297.84 -208.09 -295.35 -209.3121 -292.86417 C -211.88 -287.63 -214.27 -282.38 -216.48941 -277.0966 C -226.53 -253.23 -233.18 -228.8 -238.21137 -202.61955 C -241.65 -184.72 -245.1 -166.83 -248.53949 -148.93332 C -251.98 -131.04 -255.42 -113.14 -258.86775 -95.24686 C -262.31 -77.35 -265.75 -59.46 -269.19615 -41.56019 C -272.64 -23.66 -276.08 -5.77 -279.52467 12.12666 C -283.13 30.85 -286.73 49.58 -290.33281 68.30616 C -293.94 87.03 -297.54 105.76 -301.14105 124.48582 C -304.74 143.21 -308.35 161.94 -311.94938 180.66562 C -315.55 199.39 -319.15 218.12 -322.75779 236.84555" />
</svg>