<svg version="1.1" xmlns="http://www.w3.org/2000/svg" viewBox="-278.39494951475206 -441.9756014882105 521.0691535611554 959.873153211743" fill="none" stroke="black" stroke-width="0.6%" vector-effect="non-scaling-stroke">
    <path d="M -146.92972 -283.21784 L -89.63567 -215.76829 L -116.49088 449.21381 A 200 174.46141 180 0 0 160.74335 482.61058 A 200 174.46141 180 0 0 239.51394 316.86343" />
    <path d="M -240.54723 303.16818 L -116.49088 449.21381" />
    <path d="M -146.92972 -283.21784 L -240.54723 303.16818" />
    <path d="M -167.789 -319.40085 A 125 109.03838 180 0 0 -146.92972 -283.21784" />
    <path d="M -167.789 -319.40085 L 20.30467 -440.9756" />
    <path d="M 53.91493 -413.03421 A 125 109.03838 180 0 0 20.30467 -440.9756" />
    <path d="M 111.20897 -345.58466 L 53.91493 -413.03421" />
    <path d="M 86.32513 -191.74861 A 125 109.03838 180 0 0 135.55932 -295.32546 C 137.7 -282.7 139.85 -270.07 141.98907 -257.44056 C 144.13 -244.81 146.28 -232.18 148.41928 -219.55672 C 150.56 -206.93 152.71 -194.3 154.84991 -181.67385 C 156.99 -169.05 159.14 -156.42 161.28094 -143.79188 C 163.42 -131.16 165.57 -118.54 167.71231 -105.91072 C 169.86 -93.28 172 -80.66 174.14401 -68.0303 C 176.29 -55.4 178.43 -42.78 180.57601 -30.15058 C 182.72 -17.52 184.86 -4.9 187.00829 7.72852 C 189.2 20.61 191.38 33.49 193.57075 46.37209 C 195.76 59.25 197.95 72.13 200.13345 85.0151 C 202.32 97.9 204.51 110.78 206.69639 123.65759 C 208.88 136.54 211.07 149.42 213.25953 162.2996 C 215.45 175.18 217.64 188.06 219.82287 200.94116 C 222.01 213.82 224.2 226.7 226.38639 239.5823 C 228.57 252.46 230.76 265.34 232.95009 278.22304 C 235.14 291.1 237.33 303.98 239.51394 316.86343" />
    <path d="M 135.55932 -295.32546 A 125 109.03838 180 0 0 111.20897 -345.58466" />
    <path d="M -89.63567 -215.76829 A 125 109.03838 180 0 0 86.32513 -191.74861" />
    <path d="M -275.50177 178.31393 A 200 174.46141 180 0 0 -240.54723 303.16818" />
    <path d="M -167.789 -319.40085 C -168.18 -318.54 -168.56 -317.67 -168.93839 -316.80607 C -169.32 -315.94 -169.69 -315.07 -170.0658 -314.20823 C -170.44 -313.34 -170.81 -312.47 -171.17169 -311.60705 C -171.54 -310.74 -171.9 -309.87 -172.25651 -309.00225 C -172.63 -308.09 -173 -307.18 -173.37312 -306.26375 C -173.74 -305.35 -174.11 -304.44 -174.46753 -303.52063 C -174.83 -302.61 -175.19 -301.69 -175.54027 -300.77259 C -175.89 -299.86 -176.24 -298.94 -176.59185 -298.0193 C -176.96 -297.05 -177.32 -296.08 -177.68129 -295.10199 C -178.04 -294.13 -178.4 -293.15 -178.74822 -292.17811 C -179.1 -291.2 -179.45 -290.23 -179.7932 -289.2473 C -180.14 -288.27 -180.48 -287.29 -180.81683 -286.30921 C -181.16 -285.32 -181.5 -284.33 -181.83006 -283.33256 C -182.16 -282.34 -182.5 -281.34 -182.82265 -280.34774 C -183.15 -279.35 -183.47 -278.35 -183.79518 -277.35438 C -184.12 -276.36 -184.43 -275.35 -184.74824 -274.3521 C -185.06 -273.35 -185.38 -272.34 -185.68405 -271.33514 C -185.99 -270.33 -186.3 -269.32 -186.60146 -268.30849 C -186.9 -267.3 -187.2 -266.29 -187.50106 -265.27181 C -187.8 -264.26 -188.09 -263.24 -188.38342 -262.22471 C -188.96 -260.2 -189.53 -258.17 -190.09103 -256.12578 C -190.65 -254.09 -191.2 -252.04 -191.73709 -249.98121 C -192.28 -247.92 -192.81 -245.85 -193.32888 -243.77697 C -193.85 -241.7 -194.36 -239.62 -194.86795 -237.52103 C -195.12 -236.48 -195.37 -235.43 -195.61571 -234.38724 C -195.86 -233.34 -196.11 -232.29 -196.3521 -231.23953 C -196.6 -230.19 -196.84 -229.13 -197.07768 -228.07755 C -197.32 -227.02 -197.56 -225.96 -197.79302 -224.90091 C -198.74 -220.65 -199.66 -216.36 -200.56788 -212.018 C -201.89 -205.68 -203.16 -199.26 -204.41668 -192.72025 C -207.14 -178.52 -209.86 -164.32 -212.5855 -150.12503 C -215.31 -135.93 -218.03 -121.73 -220.75477 -107.52911 C -223.48 -93.33 -226.2 -79.13 -228.92447 -64.93256 C -231.65 -50.73 -234.37 -36.53 -237.09454 -22.33543 C -239.88 -7.84 -242.66 6.66 -245.43802 21.16451 C -248.22 35.66 -251 50.16 -253.78183 64.66495 C -256.56 79.17 -259.34 93.67 -262.12594 108.16585 C -264.91 122.67 -267.69 137.17 -270.47033 151.66716 C -270.84 153.61 -271.22 155.56 -271.58903 157.51836 C -271.92 159.24 -272.24 160.97 -272.57211 162.69313 C -272.9 164.42 -273.23 166.15 -273.55212 167.8841 C -273.88 169.62 -274.2 171.35 -274.52877 173.0911 C -274.85 174.83 -275.18 176.57 -275.50177 178.31393" />
</svg>